<?xml version="1.0" standalone="no"?>
<!DOCTYPE svg PUBLIC "-//W3C//DTD SVG 20010904//EN"
 "http://www.w3.org/TR/2001/REC-SVG-20010904/DTD/svg10.dtd">
<svg version="1.0" xmlns="http://www.w3.org/2000/svg"
 width="192.000000pt" height="192.000000pt" viewBox="0 0 192.000000 192.000000"
 preserveAspectRatio="xMidYMid meet">

<g transform="translate(0.000000,192.000000) scale(0.100000,-0.100000)"
fill="#000000" stroke="none">
<path d="M0 960 l0 -960 960 0 960 0 0 960 0 960 -960 0 -960 0 0 -960z m1038
779 c71 -83 161 -255 186 -355 22 -87 34 -226 27 -312 l-6 -74 51 -44 c29 -24
54 -44 57 -44 2 0 12 21 22 48 20 53 74 139 106 168 21 19 21 19 55 -21 47
-55 100 -163 115 -232 25 -123 -6 -276 -79 -383 l-37 -55 -6 105 c-11 184 -20
265 -30 275 -5 5 -10 0 -11 -15 0 -14 -2 -36 -4 -50 -1 -14 -5 -90 -10 -169
l-7 -144 -24 29 c-32 39 -80 140 -88 186 -7 36 -8 37 -75 52 -115 27 -119 25
-167 -52 -23 -37 -53 -80 -66 -96 l-23 -29 -13 193 c-7 107 -17 232 -22 278
-7 51 -7 87 -2 91 11 7 -15 161 -27 161 -12 0 -38 -154 -27 -161 5 -4 5 -42
-2 -95 -5 -49 -16 -174 -23 -278 l-12 -188 -23 28 c-13 16 -43 59 -66 96 -48
77 -52 79 -167 52 -67 -15 -68 -16 -75 -52 -8 -46 -56 -147 -88 -186 l-24 -29
-7 144 c-5 79 -9 155 -10 169 -2 14 -4 36 -4 50 -1 16 -5 21 -12 14 -10 -10
-13 -40 -28 -274 l-7 -105 -37 55 c-71 105 -102 252 -79 375 13 71 67 184 115
240 34 40 34 40 55 21 31 -28 87 -116 107 -167 9 -24 19 -46 20 -48 2 -2 26
16 54 40 l50 44 3 165 c3 148 6 174 31 250 47 144 124 276 220 378 16 18 35
31 41 29 5 -2 38 -37 73 -78z m-809 -1161 c-6 -11 -15 -34 -19 -50 l-9 -28 30
21 c29 21 31 21 44 3 17 -22 19 -34 6 -34 -6 0 -37 -25 -70 -56 -67 -62 -71
-59 -47 33 18 69 55 145 67 137 5 -3 4 -14 -2 -26z m1512 -62 c10 -30 22 -73
25 -97 l7 -44 -62 58 c-34 31 -66 57 -72 57 -13 0 -11 12 6 34 13 18 15 18 44
-3 l30 -21 -9 28 c-4 16 -13 38 -19 49 -5 11 -7 23 -4 27 9 9 33 -29 54 -88z
m-976 -52 c-21 -51 -19 -54 15 -14 l29 35 1 -35 c0 -60 -67 -141 -105 -126
-42 16 14 176 62 176 11 0 11 -6 -2 -36z m418 18 c41 -46 62 -147 32 -158 -38
-15 -105 66 -105 126 l1 35 29 -35 c34 -39 36 -37 15 14 -13 30 -13 36 -2 36
8 0 21 -8 30 -18z m-869 -74 c-6 -20 -5 -21 10 -9 26 22 21 -12 -7 -45 -43
-49 -59 -7 -21 54 18 28 27 28 18 0z m256 -54 c0 -49 -52 -17 -66 41 l-7 30
22 -25 21 -25 -10 30 -10 30 25 -28 c14 -15 25 -39 25 -53z m823 54 c-4 -22
-4 -23 11 -4 16 20 16 20 16 -1 0 -26 -37 -73 -57 -73 -20 0 -11 55 14 82 21
23 22 23 16 -4z m252 -35 c3 -15 1 -31 -5 -37 -15 -14 -60 36 -60 66 0 21 0
21 16 2 15 -18 15 -18 10 4 -4 23 -4 23 14 7 10 -9 21 -28 25 -42z m-705 1 c6
-14 10 -41 10 -60 0 -19 5 -34 10 -34 6 0 10 15 10 34 0 41 15 86 29 86 6 0
18 -25 27 -56 13 -47 14 -66 5 -113 -11 -55 -52 -131 -71 -131 -19 0 -60 76
-71 131 -9 47 -8 66 5 113 18 61 31 70 46 30z m-481 -74 c1 -42 -19 -85 -39
-85 -21 0 -44 68 -36 110 9 44 21 45 31 3 8 -31 8 -31 12 -8 2 14 6 32 10 40
8 22 21 -15 22 -60z m1031 34 c0 -14 4 -22 10 -19 6 3 10 15 10 26 0 23 15 25
24 3 16 -41 -8 -134 -34 -134 -27 0 -48 85 -34 137 8 29 24 20 24 -13z"/>
<path d="M647 896 c-32 -27 -37 -36 -32 -59 l7 -26 39 20 c39 19 44 31 31 76
-7 21 -8 21 -45 -11z"/>
<path d="M1226 898 c-9 -46 -9 -46 33 -67 l39 -20 6 22 c9 32 9 31 -33 65
l-39 31 -6 -31z"/>
</g>
</svg>
